<svg xmlns="http://www.w3.org/2000/svg" viewBox="0 0 479.9 479.9"><path d="M319 325.1l-7.8-77.3h-142.4l-7.8 77.3c-0.9 8.9 3.2 17.5 10.6 22.4l2 1.3c40.2 26.8 92.5 26.8 132.7 0l2-1.3C315.8 342.6 319.9 334 319 325.1zM299.5 334.2l-2 1.3c-34.8 23.2-80.2 23.2-115.1 0l-2-1.3c-2.5-1.6-3.8-4.5-3.5-7.5l6.3-62.9h113.6l6.3 62.9C303.3 329.7 302 332.5 299.5 334.2z"/><path d="M306 83.4l-15.5-8.6c-31.4-17.6-69.6-17.6-101 0l-15.5 8.6c-8.9 4.9-13.7 14.9-12 24.9l7.2 43.6h141.6l7.3-43.5C319.6 98.4 314.8 88.4 306 83.4zM302.2 105.7l-5 30.2H182.7l-5-30.2c-0.6-3.3 1-6.7 4-8.3l15.5-8.6c26.6-14.9 58.9-14.9 85.5 0l15.5 8.6C301.1 99.1 302.7 102.4 302.2 105.7z"/><rect x="175.9" y="371" transform="matrix(0.832 -0.5547 0.5547 0.832 -190.929 169.1822)" width="16" height="57.7"/><rect x="267.2" y="392.1" transform="matrix(0.5549 -0.8319 0.8319 0.5549 -201.066 424.3081)" width="57.7" height="16"/><path d="M388.4 273.3c-2.2-1.5-5-1.8-7.5-0.8l-33.2 13.3 -3.9-45.8 11.5-136.8c3.1-35.8-16.1-69.9-48.3-85.8l-6.3-3.1c-38.3-19-83.3-19-121.6 0l-6.3 3.1c-32.3 15.9-51.5 49.9-48.4 85.8l11.5 136.8 -3.8 45.9 -33.2-13.3c-4.1-1.7-8.8 0.3-10.4 4.4 -0.4 0.9-0.6 2-0.6 3v21.2c0 9.8 6 18.7 15.1 22.3l25.1 10 -3.4 39.8c-3.2 37.7 18.2 73.1 53 87.9l27.5 11.7c22.1 9.4 47.2 9.4 69.3 0l27.5-11.7c34.8-14.8 56.2-50.2 53.1-87.9l-3.3-39.8 25.1-10c9.1-3.6 15.1-12.5 15.1-22.3v-21.2C391.9 277.3 390.6 274.8 388.4 273.3zM127.9 316.1l-19-7.6c-3-1.2-5-4.1-5-7.4v-9.4l24 9.6V316.1zM339.5 101.7l-11.5 138.2 11.3 134.7c2.5 30.8-15 59.7-43.4 71.8l-27.5 11.7c-18.1 7.7-38.6 7.7-56.7 0l-27.5-11.7c-28.4-12.1-45.9-41-43.3-71.8l11.2-134.6 -11.5-138.2c-2.5-29.3 13.2-57.1 39.5-70.1l6.3-3.1c33.8-16.7 73.5-16.7 107.4 0l6.3 3.1C326.3 44.7 342 72.5 339.5 101.7zM375.9 301.1c0 3.3-2 6.2-5 7.4l-19 7.6v-14.8l24-9.6V301.1z"/></svg>